<svg width="24" height="24" viewBox="0 0 24 24" fill="none" xmlns="http://www.w3.org/2000/svg">
<path d="M11.9763 4C8.67917 4 6 6.67917 6 9.97631C6 11.0886 6.30699 12.1771 6.89306 13.118L11.6374 20.7648C11.7291 20.9123 11.8886 21 12.06 21H12.064C12.2394 21 12.3989 20.9083 12.4866 20.7568L17.1114 13.0382C17.6616 12.1173 17.9526 11.0568 17.9526 9.97631C17.9526 6.67917 15.2695 4 11.9763 4ZM16.2542 12.5239L12.0521 19.5408L7.73827 12.5917C7.25188 11.8063 6.98874 10.9013 6.98874 9.97233C6.98874 7.22538 9.22936 4.98476 11.9763 4.98476C14.7233 4.98476 16.9599 7.22538 16.9599 9.97233C16.9599 10.8773 16.7127 11.7584 16.2542 12.5239Z" fill="#52545C"/>
<path d="M11.9766 6.98584C10.33 6.98584 8.98645 8.32543 8.98645 9.97599C8.98645 11.6146 10.3061 12.9661 11.9766 12.9661C13.667 12.9661 14.9668 11.5986 14.9668 9.97599C14.9628 8.32543 13.6232 6.98584 11.9766 6.98584ZM11.9766 11.9734C10.8722 11.9734 9.97918 11.0764 9.97918 9.97599C9.97918 8.87562 10.8802 7.97857 11.9766 7.97857C13.077 7.97857 13.974 8.8796 13.974 9.97599C13.97 11.0604 13.0969 11.9734 11.9766 11.9734Z" fill="#52545C"/>
</svg>
