<svg width="25" height="24" viewBox="0 0 25 24" fill="none" xmlns="http://www.w3.org/2000/svg">
<path fill-rule="evenodd" clip-rule="evenodd" d="M20.3294 11.5988C20.2232 7.38643 16.7503 4 12.4789 4C8.25865 4 4.81715 7.30777 4.63229 11.4533C4.62836 11.5674 4.62442 11.6814 4.62442 11.7955C4.62442 13.2704 5.0374 14.647 5.7493 15.823L4.33337 20.0039L8.68342 18.6195C9.80829 19.237 11.1023 19.591 12.4789 19.591C16.8172 19.591 20.3334 16.1023 20.3334 11.7955C20.3334 11.7325 20.3334 11.6657 20.3294 11.5988ZM12.4789 18.352C11.1377 18.352 9.89089 17.9548 8.84468 17.2665L6.30781 18.0767L7.12983 15.6421C6.33927 14.5605 5.87123 13.235 5.87123 11.7994C5.87123 11.587 5.88303 11.3746 5.90269 11.1622C6.22521 7.84661 9.0492 5.2468 12.475 5.2468C15.944 5.2468 18.7916 7.91347 19.059 11.2881C19.0748 11.4572 19.0826 11.6264 19.0826 11.7994C19.0826 15.414 16.1171 18.352 12.4789 18.352Z" fill="#6C757D"/>
<path fill-rule="evenodd" clip-rule="evenodd" d="M16.0777 13.3725C15.8811 13.2781 14.9371 12.814 14.7601 12.7511C14.5831 12.6842 14.4534 12.6567 14.3275 12.8454C14.1977 13.0382 13.828 13.4669 13.7179 13.5927C13.6038 13.7225 13.4937 13.7343 13.297 13.6399C13.1043 13.5455 12.4828 13.345 11.7474 12.6921C11.177 12.1886 10.7877 11.5632 10.6775 11.3705C10.5674 11.1778 10.6657 11.0755 10.7641 10.9811C10.8506 10.8946 10.9568 10.757 11.0551 10.6468C11.0827 10.6154 11.1023 10.5839 11.1259 10.5564C11.1692 10.4856 11.2046 10.4187 11.2478 10.3282C11.3147 10.1984 11.2793 10.0883 11.2321 9.99393C11.1849 9.89953 10.7995 8.95558 10.6382 8.57406C10.4809 8.19255 10.3196 8.25941 10.2056 8.25941C10.0954 8.25941 9.96564 8.23975 9.83978 8.23975C9.70999 8.23975 9.50153 8.28694 9.32454 8.47967C9.14755 8.67239 8.65198 9.13257 8.65198 10.0765C8.65198 10.2968 8.69131 10.517 8.75031 10.7255C8.94696 11.3981 9.36388 11.9526 9.4386 12.051C9.533 12.1768 10.768 14.1709 12.7267 14.9379C14.6854 15.7009 14.6854 15.4453 15.0394 15.4138C15.3934 15.3863 16.18 14.9536 16.3373 14.5052C16.4986 14.0608 16.4986 13.6793 16.4514 13.5967C16.3963 13.5141 16.2705 13.4669 16.0777 13.3725Z" fill="#6C757D"/>
</svg>
