<svg width="25" height="24" viewBox="0 0 25 24" fill="none" xmlns="http://www.w3.org/2000/svg">
<path d="M12.6665 5.44085C14.8027 5.44085 15.0538 5.44858 15.8997 5.4872C16.68 5.52197 17.1049 5.65331 17.3831 5.76147C17.7578 5.90826 18.0243 6.07822 18.3024 6.36021C18.5805 6.63834 18.7544 6.90488 18.9012 7.27958C19.0093 7.56156 19.1407 7.98648 19.1754 8.76678C19.2141 9.60888 19.2218 9.86383 19.2218 12C19.2218 14.1362 19.2141 14.3873 19.1754 15.2332C19.1407 16.0135 19.0093 16.4384 18.9012 16.7166C18.7544 17.0913 18.5844 17.3578 18.3024 17.6359C18.0243 17.9141 17.7578 18.0879 17.3831 18.2347C17.1011 18.3428 16.6762 18.4742 15.8997 18.5089C15.0576 18.5476 14.8027 18.5553 12.6665 18.5553C10.5303 18.5553 10.2792 18.5476 9.43328 18.5089C8.65298 18.4742 8.22807 18.3428 7.94994 18.2347C7.57524 18.0879 7.3087 17.9179 7.03058 17.6359C6.75245 17.3578 6.57862 17.0913 6.43183 16.7166C6.32367 16.4346 6.19234 16.0097 6.15757 15.2332C6.11894 14.3911 6.11121 14.1362 6.11121 12C6.11121 9.86383 6.11894 9.61275 6.15757 8.76678C6.19234 7.98648 6.32367 7.56156 6.43183 7.27958C6.57862 6.90488 6.74859 6.63834 7.03058 6.36021C7.3087 6.08209 7.57524 5.90826 7.94994 5.76147C8.23193 5.65331 8.65685 5.52197 9.43328 5.4872C10.2792 5.44858 10.5303 5.44085 12.6665 5.44085ZM12.6665 4C10.4956 4 10.2213 4.00773 9.36761 4.04635C8.51778 4.08498 7.93448 4.22018 7.42459 4.41719C6.89924 4.62192 6.45115 4.89619 6.00692 5.34042C5.56269 5.78465 5.28843 6.23274 5.08369 6.75809C4.88669 7.26799 4.75149 7.84742 4.71286 8.70111C4.67423 9.5548 4.6665 9.8252 4.6665 12C4.6665 14.1748 4.67423 14.4452 4.71286 15.2989C4.75149 16.1487 4.88669 16.732 5.08369 17.2419C5.28843 17.7673 5.56269 18.2154 6.00692 18.6596C6.45115 19.1038 6.89924 19.3781 7.42459 19.5828C7.93448 19.7798 8.51391 19.915 9.36761 19.9536C10.2213 19.9923 10.4917 20 12.6665 20C14.8413 20 15.1117 19.9923 15.9654 19.9536C16.8152 19.915 17.3985 19.7798 17.9084 19.5828C18.4338 19.3781 18.8819 19.1038 19.3261 18.6596C19.7703 18.2154 20.0446 17.7673 20.2493 17.2419C20.4463 16.732 20.5815 16.1526 20.6201 15.2989C20.6588 14.4452 20.6665 14.1748 20.6665 12C20.6665 9.8252 20.6588 9.5548 20.6201 8.70111C20.5815 7.85128 20.4463 7.26799 20.2493 6.75809C20.0446 6.23274 19.7703 5.78465 19.3261 5.34042C18.8819 4.89619 18.4338 4.62192 17.9084 4.41719C17.3985 4.22018 16.8191 4.08498 15.9654 4.04635C15.1117 4.00773 14.8413 4 12.6665 4Z" fill="#6C757D"/>
<path d="M12.6665 7.89014C10.399 7.89014 8.5603 9.72886 8.5603 11.9964C8.5603 14.2639 10.399 16.1026 12.6665 16.1026C14.934 16.1026 16.7728 14.2639 16.7728 11.9964C16.7728 9.72886 14.934 7.89014 12.6665 7.89014ZM12.6665 14.6656C11.1948 14.6656 10.0012 13.472 10.0012 12.0002C10.0012 10.5285 11.1948 9.33485 12.6665 9.33485C14.1383 9.33485 15.3319 10.5285 15.3319 12.0002C15.3319 13.472 14.1383 14.6656 12.6665 14.6656Z" fill="#6C757D"/>
<path d="M17.8969 7.72752C17.8969 8.25674 17.4682 8.68551 16.9389 8.68551C16.4097 8.68551 15.981 8.25674 15.981 7.72752C15.981 7.19831 16.4097 6.76953 16.9389 6.76953C17.4682 6.76953 17.8969 7.19831 17.8969 7.72752Z" fill="#6C757D"/>
</svg>
