<svg width="25" height="24" viewBox="0 0 25 24" fill="none" xmlns="http://www.w3.org/2000/svg">
<path d="M19.9218 15.803L17.9332 13.8143C17.3844 13.2656 16.4932 13.2656 15.9445 13.8143L15.041 14.7179C14.6242 15.1346 13.9476 15.1346 13.535 14.7179L9.61548 10.7942C9.19877 10.3775 9.19877 9.705 9.61548 9.28829C9.75988 9.14389 10.1807 8.72305 10.519 8.38474C11.0636 7.84012 11.0719 6.94894 10.519 6.39608L8.53038 4.41155C7.98164 3.86282 7.09046 3.86282 6.54173 4.41155C6.13327 4.81588 6.00124 4.94791 5.81558 5.12945C3.8393 7.10572 3.8393 10.3239 5.81558 12.3043L12.025 18.5178C14.0054 20.4982 17.2153 20.5023 19.1998 18.5178L19.9218 17.7958C20.4706 17.2429 20.4706 16.3517 19.9218 15.803ZM17.2689 14.4786L19.2576 16.4673C19.4391 16.6488 19.4391 16.9459 19.2576 17.1315L18.9275 17.4616L16.2746 14.8087L16.6046 14.4786C16.7903 14.2929 17.0874 14.2929 17.2689 14.4786ZM7.86612 5.07581L9.85478 7.06034C10.0363 7.24188 10.0363 7.53894 9.85478 7.7246L9.52471 8.05467L6.87592 5.40588L7.20599 5.07994C7.38752 4.89428 7.68458 4.89428 7.86612 5.07581ZM12.6892 17.8535L6.47984 11.64C4.94916 10.1093 4.86664 7.7081 6.21991 6.07839L8.86458 8.72305C8.17144 9.51109 8.20032 10.7117 8.95122 11.4626L12.8708 15.3863C13.6217 16.1372 14.8223 16.1702 15.6103 15.4729L18.255 18.1176C16.6253 19.4626 14.2282 19.3925 12.6892 17.8535Z" fill="#6C757D"/>
</svg>
