<svg width="25" height="24" viewBox="0 0 25 24" fill="none" xmlns="http://www.w3.org/2000/svg">
<path d="M10.9343 11.9184C11.9016 12.5381 13.0908 12.6051 14.1962 12.0984C14.4307 11.9896 14.5354 11.7132 14.4266 11.4787C14.3177 11.2442 14.0413 11.1395 13.8068 11.2484C12.9987 11.6211 12.1361 11.5792 11.4409 11.1311C10.7626 10.6957 10.3564 9.95868 10.3564 9.1547C10.3564 7.8608 11.4075 6.80976 12.7014 6.80976C13.9953 6.80976 15.0463 7.8608 15.0463 9.1547C15.0463 9.41432 14.8369 9.62369 14.5773 9.62369C14.3428 9.62369 14.1209 9.44363 14.1083 9.16307C14.1083 9.15889 14.1083 9.15889 14.1083 9.1547C14.1083 8.38003 13.476 7.74774 12.7014 7.74774C11.9267 7.74774 11.2944 8.38003 11.2944 9.1547C11.2944 9.92937 11.9267 10.5617 12.7014 10.5617C13.0615 10.5617 13.3881 10.4277 13.6393 10.2015C13.8864 10.4235 14.2172 10.5617 14.5773 10.5617C15.352 10.5617 15.9843 9.92937 15.9843 9.1547C15.9843 7.34575 14.5145 5.87598 12.7014 5.87598C10.8924 5.87598 9.42263 7.34575 9.42263 9.1547C9.41844 10.2769 9.98793 11.3112 10.9343 11.9184ZM12.7014 9.62369C12.4417 9.62369 12.2324 9.41432 12.2324 9.1547C12.2324 8.89508 12.4417 8.68571 12.7014 8.68571C12.94 8.68571 13.141 8.86577 13.1662 9.10026C13.1578 9.14214 13.1578 9.1882 13.162 9.23007C13.1285 9.452 12.9358 9.62369 12.7014 9.62369Z" fill="#6C757D"/>
<path d="M19.7319 10.1555C19.7319 10.034 19.6817 9.91259 19.5937 9.82465L17.856 8.08689V4.46899C17.856 4.20937 17.6466 4 17.387 4H8.01144C7.75182 4 7.54245 4.20937 7.54245 4.46899V8.08689L5.80469 9.82465L5.8005 9.82884C5.71256 9.92096 5.6665 10.0382 5.6665 10.1555V18.593C5.6665 19.3677 6.2988 20 7.07347 20H18.3208C19.0955 20 19.7277 19.3677 19.7277 18.593L19.7319 10.1555ZM18.6013 10.1555L17.8602 10.8966V9.4101L18.6013 10.1555ZM16.918 4.93797V8.27951V11.8346L14.3805 14.3722H11.018L8.48043 11.8346V8.27951V4.93797H16.918ZM7.54664 10.8966L6.80547 10.1555L7.54664 9.41429V10.8966ZM6.60867 18.3962V11.2861L10.1638 14.8411L6.60867 18.3962ZM7.27027 19.062L11.018 15.3143H14.3805L18.1282 19.062H7.27027ZM18.794 18.3962L15.2389 14.8411L18.794 11.2861V18.3962Z" fill="#6C757D"/>
</svg>
