<svg width="91" height="72" viewBox="0 0 91 72" fill="none" xmlns="http://www.w3.org/2000/svg">
<g clip-path="url(#clip0_1180_1351)">
<rect x="34" y="0.5" width="23" height="47" rx="11.5" stroke="#C1CED9"/>
<circle cx="45.8002" cy="13.1" r="5.1" fill="#D9D9D9"/>
<path d="M6.00586 64.7207C6.00586 65.2285 5.87891 65.6621 5.625 66.0215C5.375 66.377 5.02344 66.6484 4.57031 66.8359C4.11719 67.0234 3.58398 67.1172 2.9707 67.1172C2.64648 67.1172 2.33984 67.1016 2.05078 67.0703C1.76172 67.0391 1.49609 66.9941 1.25391 66.9355C1.01172 66.877 0.798828 66.8047 0.615234 66.7188V65.7637C0.908203 65.8848 1.26562 65.998 1.6875 66.1035C2.10938 66.2051 2.55078 66.2559 3.01172 66.2559C3.44141 66.2559 3.80469 66.1992 4.10156 66.0859C4.39844 65.9688 4.62305 65.8027 4.77539 65.5879C4.93164 65.3691 5.00977 65.1074 5.00977 64.8027C5.00977 64.5098 4.94531 64.2656 4.81641 64.0703C4.6875 63.8711 4.47266 63.6914 4.17188 63.5312C3.875 63.3672 3.46875 63.1934 2.95312 63.0098C2.58984 62.8809 2.26953 62.7402 1.99219 62.5879C1.71484 62.4316 1.48242 62.2559 1.29492 62.0605C1.10742 61.8652 0.964844 61.6387 0.867188 61.3809C0.773438 61.123 0.726562 60.8281 0.726562 60.4961C0.726562 60.0391 0.841797 59.6484 1.07227 59.3242C1.30664 58.9961 1.62891 58.7461 2.03906 58.5742C2.45312 58.3984 2.92773 58.3105 3.46289 58.3105C3.91992 58.3105 4.3418 58.3535 4.72852 58.4395C5.11914 58.5254 5.47656 58.6406 5.80078 58.7852L5.49023 59.6406C5.18164 59.5117 4.85352 59.4043 4.50586 59.3184C4.16211 59.2324 3.80664 59.1895 3.43945 59.1895C3.07227 59.1895 2.76172 59.2441 2.50781 59.3535C2.25781 59.459 2.06641 59.6094 1.93359 59.8047C1.80078 60 1.73438 60.2324 1.73438 60.502C1.73438 60.8027 1.79688 61.0527 1.92188 61.252C2.05078 61.4512 2.25391 61.6289 2.53125 61.7852C2.8125 61.9375 3.18359 62.0977 3.64453 62.2656C4.14844 62.4492 4.57617 62.6445 4.92773 62.8516C5.2793 63.0547 5.54688 63.3047 5.73047 63.6016C5.91406 63.8945 6.00586 64.2676 6.00586 64.7207ZM10.1836 67.1172C9.60547 67.1172 9.0957 66.998 8.6543 66.7598C8.21289 66.5215 7.86914 66.1582 7.62305 65.6699C7.37695 65.1816 7.25391 64.5664 7.25391 63.8242C7.25391 63.0469 7.38281 62.4121 7.64062 61.9199C7.90234 61.4238 8.26172 61.0566 8.71875 60.8184C9.17578 60.5801 9.69531 60.4609 10.2773 60.4609C10.5977 60.4609 10.9062 60.4941 11.2031 60.5605C11.5039 60.623 11.75 60.7031 11.9414 60.8008L11.6484 61.6152C11.4531 61.5371 11.2266 61.4668 10.9688 61.4043C10.7148 61.3418 10.4766 61.3105 10.2539 61.3105C9.80859 61.3105 9.4375 61.4062 9.14062 61.5977C8.84766 61.7891 8.62695 62.0703 8.47852 62.4414C8.33398 62.8125 8.26172 63.2695 8.26172 63.8125C8.26172 64.332 8.33203 64.7754 8.47266 65.1426C8.61719 65.5098 8.83008 65.791 9.11133 65.9863C9.39648 66.1777 9.75195 66.2734 10.1777 66.2734C10.5176 66.2734 10.8242 66.2383 11.0977 66.168C11.3711 66.0938 11.6191 66.0078 11.8418 65.9102V66.7773C11.627 66.8867 11.3867 66.9707 11.1211 67.0293C10.8594 67.0879 10.5469 67.1172 10.1836 67.1172ZM16.2832 60.4609C16.4121 60.4609 16.5469 60.4688 16.6875 60.4844C16.8281 60.4961 16.9531 60.5137 17.0625 60.5371L16.9395 61.4395C16.834 61.4121 16.7168 61.3906 16.5879 61.375C16.459 61.3594 16.3379 61.3516 16.2246 61.3516C15.9668 61.3516 15.7227 61.4043 15.4922 61.5098C15.2656 61.6113 15.0664 61.7598 14.8945 61.9551C14.7227 62.1465 14.5879 62.3789 14.4902 62.6523C14.3926 62.9219 14.3438 63.2227 14.3438 63.5547V67H13.3652V60.5781H14.1738L14.2793 61.7617H14.3203C14.4531 61.5234 14.6133 61.3066 14.8008 61.1113C14.9883 60.9121 15.2051 60.7539 15.4512 60.6367C15.7012 60.5195 15.9785 60.4609 16.2832 60.4609ZM23.8125 63.7773C23.8125 64.3047 23.7441 64.7754 23.6074 65.1895C23.4707 65.6035 23.2734 65.9531 23.0156 66.2383C22.7578 66.5234 22.4453 66.7422 22.0781 66.8945C21.7148 67.043 21.3027 67.1172 20.8418 67.1172C20.4121 67.1172 20.0176 67.043 19.6582 66.8945C19.3027 66.7422 18.9941 66.5234 18.7324 66.2383C18.4746 65.9531 18.2734 65.6035 18.1289 65.1895C17.9883 64.7754 17.918 64.3047 17.918 63.7773C17.918 63.0742 18.0371 62.4766 18.2754 61.9844C18.5137 61.4883 18.8535 61.1113 19.2949 60.8535C19.7402 60.5918 20.2695 60.4609 20.8828 60.4609C21.4688 60.4609 21.9805 60.5918 22.418 60.8535C22.8594 61.1152 23.2012 61.4941 23.4434 61.9902C23.6895 62.4824 23.8125 63.0781 23.8125 63.7773ZM18.9258 63.7773C18.9258 64.293 18.9941 64.7402 19.1309 65.1191C19.2676 65.498 19.4785 65.791 19.7637 65.998C20.0488 66.2051 20.416 66.3086 20.8652 66.3086C21.3105 66.3086 21.6758 66.2051 21.9609 65.998C22.25 65.791 22.4629 65.498 22.5996 65.1191C22.7363 64.7402 22.8047 64.293 22.8047 63.7773C22.8047 63.2656 22.7363 62.8242 22.5996 62.4531C22.4629 62.0781 22.252 61.7891 21.9668 61.5859C21.6816 61.3828 21.3125 61.2812 20.8594 61.2812C20.1914 61.2812 19.7012 61.502 19.3887 61.9434C19.0801 62.3848 18.9258 62.9961 18.9258 63.7773ZM26.4727 67H25.4941V57.8828H26.4727V67ZM29.5078 67H28.5293V57.8828H29.5078V67ZM36.7559 66.3203C36.916 66.3203 37.0801 66.3066 37.248 66.2793C37.416 66.252 37.5527 66.2188 37.6582 66.1797V66.9355C37.5449 66.9863 37.3867 67.0293 37.1836 67.0645C36.9844 67.0996 36.7891 67.1172 36.5977 67.1172C36.2578 67.1172 35.9492 67.0586 35.6719 66.9414C35.3945 66.8203 35.1719 66.6172 35.0039 66.332C34.8398 66.0469 34.7578 65.6523 34.7578 65.1484V61.3398H33.8438V60.8652L34.7637 60.4844L35.1504 59.0898H35.7363V60.5781H37.6172V61.3398H35.7363V65.1191C35.7363 65.5215 35.8281 65.8223 36.0117 66.0215C36.1992 66.2207 36.4473 66.3203 36.7559 66.3203ZM44.4961 63.7773C44.4961 64.3047 44.4277 64.7754 44.291 65.1895C44.1543 65.6035 43.957 65.9531 43.6992 66.2383C43.4414 66.5234 43.1289 66.7422 42.7617 66.8945C42.3984 67.043 41.9863 67.1172 41.5254 67.1172C41.0957 67.1172 40.7012 67.043 40.3418 66.8945C39.9863 66.7422 39.6777 66.5234 39.416 66.2383C39.1582 65.9531 38.957 65.6035 38.8125 65.1895C38.6719 64.7754 38.6016 64.3047 38.6016 63.7773C38.6016 63.0742 38.7207 62.4766 38.959 61.9844C39.1973 61.4883 39.5371 61.1113 39.9785 60.8535C40.4238 60.5918 40.9531 60.4609 41.5664 60.4609C42.1523 60.4609 42.6641 60.5918 43.1016 60.8535C43.543 61.1152 43.8848 61.4941 44.127 61.9902C44.373 62.4824 44.4961 63.0781 44.4961 63.7773ZM39.6094 63.7773C39.6094 64.293 39.6777 64.7402 39.8145 65.1191C39.9512 65.498 40.1621 65.791 40.4473 65.998C40.7324 66.2051 41.0996 66.3086 41.5488 66.3086C41.9941 66.3086 42.3594 66.2051 42.6445 65.998C42.9336 65.791 43.1465 65.498 43.2832 65.1191C43.4199 64.7402 43.4883 64.293 43.4883 63.7773C43.4883 63.2656 43.4199 62.8242 43.2832 62.4531C43.1465 62.0781 42.9355 61.7891 42.6504 61.5859C42.3652 61.3828 41.9961 61.2812 41.543 61.2812C40.875 61.2812 40.3848 61.502 40.0723 61.9434C39.7637 62.3848 39.6094 62.9961 39.6094 63.7773ZM51.7676 60.4609C52.3145 60.4609 52.7832 60.582 53.1738 60.8242C53.5645 61.0664 53.8633 61.4062 54.0703 61.8438C54.2773 62.2773 54.3809 62.7852 54.3809 63.3672V63.9707H49.9453C49.957 64.7246 50.1445 65.2988 50.5078 65.6934C50.8711 66.0879 51.3828 66.2852 52.043 66.2852C52.4492 66.2852 52.8086 66.248 53.1211 66.1738C53.4336 66.0996 53.7578 65.9902 54.0938 65.8457V66.7012C53.7695 66.8457 53.4473 66.9512 53.127 67.0176C52.8105 67.084 52.4355 67.1172 52.002 67.1172C51.3848 67.1172 50.8457 66.9922 50.3848 66.7422C49.9277 66.4883 49.5723 66.1172 49.3184 65.6289C49.0645 65.1406 48.9375 64.543 48.9375 63.8359C48.9375 63.1445 49.0527 62.5469 49.2832 62.043C49.5176 61.5352 49.8457 61.1445 50.2676 60.8711C50.6934 60.5977 51.1934 60.4609 51.7676 60.4609ZM51.7559 61.2578C51.2363 61.2578 50.8223 61.4277 50.5137 61.7676C50.2051 62.1074 50.0215 62.582 49.9629 63.1914H53.3613C53.3574 62.8086 53.2969 62.4727 53.1797 62.1836C53.0664 61.8906 52.8926 61.6641 52.6582 61.5039C52.4238 61.3398 52.123 61.2578 51.7559 61.2578ZM57.5625 63.7129L55.3418 60.5781H56.4551L58.1484 63.0508L59.8359 60.5781H60.9375L58.7168 63.7129L61.0605 67H59.9473L58.1484 64.3809L56.3379 67H55.2363L57.5625 63.7129ZM65.332 60.4609C66.1328 60.4609 66.7715 60.7363 67.248 61.2871C67.7246 61.8379 67.9629 62.666 67.9629 63.7715C67.9629 64.502 67.8535 65.1152 67.6348 65.6113C67.416 66.1074 67.1074 66.4824 66.709 66.7363C66.3145 66.9902 65.8477 67.1172 65.3086 67.1172C64.9688 67.1172 64.6699 67.0723 64.4121 66.9824C64.1543 66.8926 63.9336 66.7715 63.75 66.6191C63.5664 66.4668 63.4141 66.3008 63.293 66.1211H63.2227C63.2344 66.2734 63.248 66.457 63.2637 66.6719C63.2832 66.8867 63.293 67.0742 63.293 67.2344V69.8711H62.3145V60.5781H63.1172L63.2461 61.5273H63.293C63.418 61.332 63.5703 61.1543 63.75 60.9941C63.9297 60.8301 64.1484 60.7012 64.4062 60.6074C64.668 60.5098 64.9766 60.4609 65.332 60.4609ZM65.1621 61.2812C64.7168 61.2812 64.3574 61.3672 64.084 61.5391C63.8145 61.7109 63.6172 61.9688 63.4922 62.3125C63.3672 62.6523 63.3008 63.0801 63.293 63.5957V63.7832C63.293 64.3262 63.3516 64.7852 63.4688 65.1602C63.5898 65.5352 63.7871 65.8203 64.0605 66.0156C64.3379 66.2109 64.709 66.3086 65.1738 66.3086C65.5723 66.3086 65.9043 66.2012 66.1699 65.9863C66.4355 65.7715 66.6328 65.4727 66.7617 65.0898C66.8945 64.7031 66.9609 64.2598 66.9609 63.7598C66.9609 63.002 66.8125 62.4004 66.5156 61.9551C66.2227 61.5059 65.7715 61.2812 65.1621 61.2812ZM70.6406 67H69.6621V57.8828H70.6406V67ZM78.2344 63.7773C78.2344 64.3047 78.166 64.7754 78.0293 65.1895C77.8926 65.6035 77.6953 65.9531 77.4375 66.2383C77.1797 66.5234 76.8672 66.7422 76.5 66.8945C76.1367 67.043 75.7246 67.1172 75.2637 67.1172C74.834 67.1172 74.4395 67.043 74.0801 66.8945C73.7246 66.7422 73.416 66.5234 73.1543 66.2383C72.8965 65.9531 72.6953 65.6035 72.5508 65.1895C72.4102 64.7754 72.3398 64.3047 72.3398 63.7773C72.3398 63.0742 72.459 62.4766 72.6973 61.9844C72.9355 61.4883 73.2754 61.1113 73.7168 60.8535C74.1621 60.5918 74.6914 60.4609 75.3047 60.4609C75.8906 60.4609 76.4023 60.5918 76.8398 60.8535C77.2812 61.1152 77.623 61.4941 77.8652 61.9902C78.1113 62.4824 78.2344 63.0781 78.2344 63.7773ZM73.3477 63.7773C73.3477 64.293 73.416 64.7402 73.5527 65.1191C73.6895 65.498 73.9004 65.791 74.1855 65.998C74.4707 66.2051 74.8379 66.3086 75.2871 66.3086C75.7324 66.3086 76.0977 66.2051 76.3828 65.998C76.6719 65.791 76.8848 65.498 77.0215 65.1191C77.1582 64.7402 77.2266 64.293 77.2266 63.7773C77.2266 63.2656 77.1582 62.8242 77.0215 62.4531C76.8848 62.0781 76.6738 61.7891 76.3887 61.5859C76.1035 61.3828 75.7344 61.2812 75.2812 61.2812C74.6133 61.2812 74.123 61.502 73.8105 61.9434C73.502 62.3848 73.3477 62.9961 73.3477 63.7773ZM82.834 60.4609C82.9629 60.4609 83.0977 60.4688 83.2383 60.4844C83.3789 60.4961 83.5039 60.5137 83.6133 60.5371L83.4902 61.4395C83.3848 61.4121 83.2676 61.3906 83.1387 61.375C83.0098 61.3594 82.8887 61.3516 82.7754 61.3516C82.5176 61.3516 82.2734 61.4043 82.043 61.5098C81.8164 61.6113 81.6172 61.7598 81.4453 61.9551C81.2734 62.1465 81.1387 62.3789 81.041 62.6523C80.9434 62.9219 80.8945 63.2227 80.8945 63.5547V67H79.916V60.5781H80.7246L80.8301 61.7617H80.8711C81.0039 61.5234 81.1641 61.3066 81.3516 61.1113C81.5391 60.9121 81.7559 60.7539 82.002 60.6367C82.252 60.5195 82.5293 60.4609 82.834 60.4609ZM87.2988 60.4609C87.8457 60.4609 88.3145 60.582 88.7051 60.8242C89.0957 61.0664 89.3945 61.4062 89.6016 61.8438C89.8086 62.2773 89.9121 62.7852 89.9121 63.3672V63.9707H85.4766C85.4883 64.7246 85.6758 65.2988 86.0391 65.6934C86.4023 66.0879 86.9141 66.2852 87.5742 66.2852C87.9805 66.2852 88.3398 66.248 88.6523 66.1738C88.9648 66.0996 89.2891 65.9902 89.625 65.8457V66.7012C89.3008 66.8457 88.9785 66.9512 88.6582 67.0176C88.3418 67.084 87.9668 67.1172 87.5332 67.1172C86.916 67.1172 86.377 66.9922 85.916 66.7422C85.459 66.4883 85.1035 66.1172 84.8496 65.6289C84.5957 65.1406 84.4688 64.543 84.4688 63.8359C84.4688 63.1445 84.584 62.5469 84.8145 62.043C85.0488 61.5352 85.377 61.1445 85.7988 60.8711C86.2246 60.5977 86.7246 60.4609 87.2988 60.4609ZM87.2871 61.2578C86.7676 61.2578 86.3535 61.4277 86.0449 61.7676C85.7363 62.1074 85.5527 62.582 85.4941 63.1914H88.8926C88.8887 62.8086 88.8281 62.4727 88.7109 62.1836C88.5977 61.8906 88.4238 61.6641 88.1895 61.5039C87.9551 61.3398 87.6543 61.2578 87.2871 61.2578Z" fill="#C1CED9"/>
</g>
<defs>
<clipPath id="clip0_1180_1351">
<rect width="91" height="72" fill="white"/>
</clipPath>
</defs>
</svg>
