<svg width="40" height="40" viewBox="0 0 40 40" fill="none" xmlns="http://www.w3.org/2000/svg">
<path d="M0.292893 19.2929C-0.0976311 19.6834 -0.0976311 20.3166 0.292893 20.7071L6.65685 27.0711C7.04738 27.4616 7.68054 27.4616 8.07107 27.0711C8.46159 26.6805 8.46159 26.0474 8.07107 25.6569L2.41421 20L8.07107 14.3431C8.46159 13.9526 8.46159 13.3195 8.07107 12.9289C7.68054 12.5384 7.04738 12.5384 6.65685 12.9289L0.292893 19.2929ZM38.7071 20.7071C39.0976 20.3166 39.0976 19.6834 38.7071 19.2929L32.3431 12.9289C31.9526 12.5384 31.3195 12.5384 30.9289 12.9289C30.5384 13.3195 30.5384 13.9526 30.9289 14.3431L36.5858 20L30.9289 25.6569C30.5384 26.0474 30.5384 26.6805 30.9289 27.0711C31.3195 27.4616 31.9526 27.4616 32.3431 27.0711L38.7071 20.7071ZM1 21H38V19H1V21Z" fill="#C1CED9"/>
</svg>
